<?xml version="1.0" encoding="utf-8"?>
<!-- Generator: Adobe Illustrator 16.0.0, SVG Export Plug-In . SVG Version: 6.00 Build 0)  -->
<!DOCTYPE svg PUBLIC "-//W3C//DTD SVG 1.1//EN" "http://www.w3.org/Graphics/SVG/1.1/DTD/svg11.dtd">
<svg version="1.1" id="Layer_1" xmlns="http://www.w3.org/2000/svg" xmlns:xlink="http://www.w3.org/1999/xlink" x="0px" y="0px"
	 width="1944px" height="600px" viewBox="0 0 1944 600" enable-background="new 0 0 1944 600" xml:space="preserve">
<g>
	<path fill="#CACBD3" d="M567.724,397.046c-2.425,0-4.396-1.968-4.396-4.387V192.316c0-2.425,1.971-4.394,4.393-4.394
		c2.422,0,4.396,1.968,4.396,4.394v200.343C572.117,395.079,570.144,397.046,567.724,397.046z"/>
	<path fill="#CACBD3" d="M160.315,398.574c-9.261,0-18.127-1.591-26.357-4.723c-8.242-3.143-15.535-7.513-21.669-12.994
		c-6.124-5.463-10.997-11.94-14.493-19.256c-2.489-5.226-4.121-10.736-4.827-16.391c-0.127-1.1,0.208-2.176,0.96-3.021
		c0.776-0.88,1.887-1.383,3.044-1.383h0.799c2.025,0,3.681,1.511,3.947,3.6c0.625,5.076,2.083,9.984,4.317,14.591
		c3.091,6.361,7.374,12.021,12.733,16.808c5.336,4.769,11.645,8.572,18.729,11.315c7.107,2.744,14.782,4.139,22.815,4.139
		c8.022,0,15.685-1.337,22.769-3.977c7.096-2.639,13.416-6.401,18.764-11.17c5.359-4.78,9.643-10.609,12.745-17.311
		c3.103-6.731,4.688-14.122,4.688-21.976c0-6.72-1.609-12.941-4.78-18.498c-3.125-5.458-7.42-10.331-12.791-14.487
		c-5.29-4.092-11.541-7.599-18.567-10.424c-6.945-2.795-14.481-4.948-22.387-6.407c-7.802-1.389-15.176-3.496-21.947-6.274
		c-6.714-2.75-12.733-6.228-17.896-10.354c-5.093-4.063-9.145-8.797-12.05-14.087c-2.871-5.215-4.318-11.037-4.318-17.317
		c0-7.565,1.482-14.625,4.399-20.992c2.928-6.413,6.957-12.01,11.946-16.657c4.989-4.653,10.95-8.346,17.71-10.979
		c6.76-2.622,14.064-3.958,21.716-3.958c11.205,0,21.739,2.338,31.289,6.945c7.026,3.386,13.196,7.64,18.359,12.64
		c0.833,0.816,1.238,1.962,1.1,3.16c-0.15,1.273-0.868,2.384-1.968,3.039c-0.614,0.37-1.332,0.567-2.061,0.567
		c-1.03,0-1.991-0.388-2.686-1.105c-4.804-4.845-10.499-8.89-16.935-12.021c-8.068-3.918-17.189-5.903-27.098-5.903
		c-6.436,0-12.548,1.082-18.174,3.212c-5.637,2.147-10.684,5.25-15.001,9.203c-4.353,3.999-7.779,8.861-10.187,14.452
		c-2.408,5.585-3.623,11.778-3.623,18.399c0,5.55,1.447,10.667,4.317,15.216c2.767,4.422,6.494,8.398,11.043,11.819
		c4.503,3.386,9.781,6.222,15.685,8.438c5.834,2.188,11.98,3.826,18.266,4.867c9.365,1.389,18.162,3.803,26.172,7.171
		c7.94,3.357,14.932,7.593,20.755,12.594c5.788,4.977,10.372,10.696,13.624,17.01c3.229,6.239,4.862,13.219,4.862,20.732
		c0,8.757-1.759,16.999-5.244,24.494c-3.496,7.507-8.369,14.076-14.481,19.54c-6.146,5.487-13.439,9.856-21.669,12.988
		C178.419,396.983,169.553,398.574,160.315,398.574z"/>
	<path fill="#CACBD3" d="M1189.668,397.046c-2.014,0-3.658-1.638-3.658-3.652V203.811c0-4.723-3.843-8.572-8.566-8.572h-51.129
		c-2.025,0-3.657-1.638-3.657-3.658c0-2.02,1.632-3.658,3.657-3.658h128.188c2.025,0,3.658,1.638,3.658,3.658
		c0,2.02-1.633,3.658-3.658,3.658h-51.129c-4.723,0-8.577,3.849-8.577,8.572v189.583c0,2.014-1.632,3.652-3.646,3.652H1189.668z"/>
	<path fill="#CACBD3" d="M1608.412,391.797l-53.572-195.776c-1.308-4.77-5.672-8.098-10.614-8.098s-9.312,3.328-10.614,8.098
		l-40.214,147.119c-0.341,1.262-0.087,2.582,0.706,3.617c0.793,1.042,1.997,1.632,3.305,1.632c1.863,0,3.514-1.25,4.012-3.044
		l38.256-139.398c0.568-2.084,2.396-3.479,4.55-3.479s3.981,1.395,4.55,3.479l28.463,104.284l2.078,7.316l21.074,76.456
		c0.497,1.794,2.146,3.044,4.01,3.044c1.309,0,2.512-0.59,3.305-1.632C1608.498,394.378,1608.754,393.059,1608.412,391.797z"/>
	<path fill="#CACBD3" d="M1500.875,385.436c0,7.646-6.192,13.838-13.838,13.838c-7.652,0-13.845-6.193-13.845-13.838
		s6.192-13.844,13.845-13.844C1494.683,371.592,1500.875,377.791,1500.875,385.436z"/>
	<g>
		<path fill="#CACBD3" d="M674.512,191.581c0,2.02,1.637,3.658,3.657,3.658h103.21c2.02,0,3.661-1.638,3.661-3.658
			c0-2.02-1.642-3.658-3.661-3.658h-103.21C676.148,187.923,674.512,189.561,674.512,191.581L674.512,191.581z"/>
		<path fill="#CACBD3" d="M785.447,288.919c0-2.02-1.643-3.658-3.66-3.658H678.169c-2.021,0-3.657,1.632-3.657,3.658l0,0
			c0,2.014,1.637,3.652,3.657,3.652h103.618C783.805,292.572,785.447,290.934,785.447,288.919z"/>
		<path fill="#CACBD3" d="M781.379,389.73h-103.21c-2.021,0-3.657,1.638-3.657,3.658l0,0c0,2.02,1.637,3.658,3.657,3.658h103.21
			c2.02,0,3.661-1.638,3.661-3.652C785.04,391.375,783.398,389.73,781.379,389.73z"/>
	</g>
	<path fill="#CACBD3" d="M456.055,339.354c-2.217,0-4.081,1.708-4.335,3.97c-0.625,5.464-2.081,10.69-4.321,15.546
		c-3.093,6.697-7.382,12.519-12.753,17.312c-5.351,4.775-11.663,8.537-18.761,11.176c-7.079,2.634-14.741,3.977-22.775,3.977
		c-8.03,0-15.696-1.343-22.775-3.977c-7.102-2.639-13.413-6.401-18.758-11.176c-5.362-4.787-9.654-10.609-12.753-17.312
		c-3.105-6.725-4.677-14.116-4.677-21.976l-0.002-39.403l0.002-49.242c0-7.86,1.572-15.251,4.677-21.976
		c3.099-6.703,7.391-12.531,12.753-17.311c5.345-4.775,11.656-8.537,18.758-11.177c7.079-2.633,14.745-3.976,22.775-3.976
		c8.034,0,15.696,1.343,22.775,3.976c7.099,2.64,13.41,6.396,18.761,11.177c5.371,4.792,9.66,10.614,12.753,17.311
		c2.24,4.856,3.696,10.082,4.321,15.546c0.254,2.263,2.118,3.97,4.335,3.97c1.268,0,2.483-0.544,3.331-1.499
		c0.828-0.932,1.204-2.106,1.065-3.311c-0.704-6.054-2.33-11.848-4.836-17.225c-3.49-7.512-8.363-14.087-14.478-19.545
		c-6.141-5.481-13.433-9.851-21.672-12.982c-8.239-3.143-17.105-4.734-26.354-4.734c-9.249,0-18.116,1.591-26.354,4.734
		c-8.23,3.125-15.52,7.495-21.669,12.982c-6.109,5.458-10.982,12.033-14.478,19.545c-3.449,7.409-5.212,15.581-5.25,24.494v47.841
		v3.143v37.661c0.038,8.913,1.8,17.085,5.25,24.494c3.496,7.506,8.369,14.082,14.478,19.539c6.149,5.487,13.439,9.857,21.669,12.988
		c8.239,3.143,17.106,4.729,26.354,4.729c9.249,0,18.116-1.585,26.354-4.729c8.239-3.131,15.532-7.506,21.672-12.988
		c6.115-5.458,10.988-12.033,14.478-19.539c2.506-5.377,4.132-11.17,4.836-17.225c0.139-1.204-0.237-2.384-1.065-3.316
		C458.538,339.898,457.323,339.354,456.055,339.354z"/>
	<path fill="#CACBD3" d="M1003.389,397.046c-1.667,0-3.172-0.92-3.924-2.408l-96.048-189.792l-4.647,1.105v186.707
		c0,2.419-1.974,4.387-4.393,4.387c-2.426,0-4.399-1.968-4.399-4.387V192.316c0-2.425,1.974-4.394,4.399-4.394h8.103
		c1.673,0,3.177,0.926,3.93,2.425l95.364,189.775l4.654-1.105V192.316c0-2.425,1.967-4.394,4.393-4.394
		c2.425,0,4.393,1.968,4.393,4.394v200.343c0,2.419-1.968,4.387-4.393,4.387H1003.389z"/>
	<path fill="#CACBD3" d="M1367.824,397.046c-2.426,0-4.396-1.968-4.396-4.387V192.316c0-2.425,1.971-4.394,4.393-4.394
		s4.396,1.968,4.396,4.394v200.343C1372.217,395.079,1370.242,397.046,1367.824,397.046z"/>
	<g>
		<path fill="#CACBD3" d="M1705.75,197.508c0,2.02,1.639,3.658,3.658,3.658h103.207c2.025,0,3.664-1.638,3.664-3.658
			c0-2.02-1.639-3.658-3.664-3.658h-103.207C1707.389,193.85,1705.75,195.488,1705.75,197.508L1705.75,197.508z"/>
		<path fill="#CACBD3" d="M1816.689,294.846c0-2.02-1.643-3.658-3.663-3.658h-103.618c-2.02,0-3.658,1.632-3.658,3.658l0,0
			c0,2.014,1.639,3.652,3.658,3.652h103.618C1815.047,298.498,1816.689,296.86,1816.689,294.846z"/>
		<path fill="#CACBD3" d="M1812.615,395.657h-103.207c-2.02,0-3.658,1.638-3.658,3.658l0,0c0,2.02,1.639,3.658,3.658,3.658h103.207
			c2.025,0,3.664-1.638,3.664-3.652C1816.279,397.301,1814.641,395.657,1812.615,395.657z"/>
	</g>
	<g>
		<path fill="#FFFFFF" d="M386.037,485.504c0.216-0.278,0.524-0.417,0.926-0.417h0.046c0.803,0,1.204,0.494,1.204,1.482v63.063
			c0,1.019-0.401,1.528-1.204,1.528h-0.046c-0.433,0-0.749-0.139-0.949-0.417c-0.201-0.278-0.301-0.648-0.301-1.111v-63.063
			C385.712,486.137,385.82,485.782,386.037,485.504z"/>
		<path fill="#FFFFFF" d="M461.462,549.632c0,1.019-0.401,1.528-1.204,1.528h-0.046c-0.433,0-0.749-0.139-0.949-0.417
			c-0.201-0.278-0.301-0.648-0.301-1.111v-63.295c0-0.308,0.1-0.586,0.301-0.833c0.2-0.247,0.501-0.386,0.903-0.417h0.231
			c0.432,0,0.895,0.294,1.389,0.88l48.756,60.563v-60.192c0-0.833,0.432-1.25,1.296-1.25h0.046c0.802,0,1.204,0.417,1.204,1.25
			v63.295c0,1.019-0.402,1.528-1.204,1.528h-0.278c-0.401,0-0.849-0.278-1.343-0.833l-48.802-60.702V549.632z"/>
		<path fill="#FFFFFF" d="M578.792,485.087h47.414c0.802,0,1.204,0.417,1.204,1.25v0.046c0,0.864-0.401,1.296-1.204,1.296h-22.364
			v62.184c0,0.864-0.401,1.296-1.204,1.296h-0.046c-0.865,0-1.296-0.432-1.296-1.296V487.68h-22.503
			c-0.864,0-1.296-0.432-1.296-1.296v-0.046C577.495,485.504,577.927,485.087,578.792,485.087z"/>
		<path fill="#FFFFFF" d="M691.769,485.087h42.968c0.987,0,1.481,0.417,1.481,1.25v0.046c0,0.433-0.131,0.756-0.394,0.972
			c-0.263,0.216-0.625,0.324-1.088,0.324h-41.718v27.966h34.171c0.463,0,0.841,0.101,1.134,0.301c0.293,0.201,0.44,0.518,0.44,0.949
			v0.046c0,0.433-0.147,0.749-0.44,0.949c-0.293,0.201-0.671,0.301-1.134,0.301h-34.171v30.375h42.644
			c0.988,0,1.482,0.417,1.482,1.25v0.046c0,0.433-0.132,0.757-0.394,0.972c-0.263,0.216-0.625,0.324-1.089,0.324h-43.894
			c-0.834,0-1.251-0.432-1.251-1.296v-63.526C690.518,485.504,690.935,485.087,691.769,485.087z"/>
		<path fill="#FFFFFF" d="M801.317,485.087h0.046c0.803,0,1.204,0.494,1.204,1.482v61.999h38.106c1.05,0,1.574,0.401,1.574,1.204
			v0.046c0,0.433-0.146,0.764-0.439,0.996c-0.294,0.231-0.672,0.347-1.135,0.347h-39.356c-0.833,0-1.25-0.432-1.25-1.296v-63.295
			C800.067,485.581,800.484,485.087,801.317,485.087z"/>
		<path fill="#FFFFFF" d="M906.146,485.087h0.046c0.803,0,1.204,0.494,1.204,1.482v61.999h38.106c1.05,0,1.574,0.401,1.574,1.204
			v0.046c0,0.433-0.146,0.764-0.439,0.996c-0.294,0.231-0.672,0.347-1.135,0.347h-39.356c-0.833,0-1.25-0.432-1.25-1.296v-63.295
			C904.896,485.581,905.312,485.087,906.146,485.087z"/>
		<path fill="#FFFFFF" d="M1009.908,485.504c0.215-0.278,0.524-0.417,0.926-0.417h0.046c0.803,0,1.204,0.494,1.204,1.482v63.063
			c0,1.019-0.401,1.528-1.204,1.528h-0.046c-0.433,0-0.749-0.139-0.949-0.417c-0.201-0.278-0.301-0.648-0.301-1.111v-63.063
			C1009.584,486.137,1009.691,485.782,1009.908,485.504z"/>
		<path fill="#FFFFFF" d="M1124.319,547.525c3.303-1.219,6.358-2.863,9.168-4.931v-19.4c0-0.463,0.107-0.826,0.324-1.088
			c0.215-0.262,0.539-0.394,0.972-0.394c0.834,0,1.251,0.494,1.251,1.482v19.632c0,0.618-0.201,1.111-0.603,1.482
			c-2.84,2.346-6.128,4.198-9.862,5.556c-3.735,1.358-7.547,2.037-11.437,2.037c-6.143,0-11.823-1.505-17.039-4.514
			c-5.217-3.01-9.346-7.092-12.386-12.247c-3.041-5.155-4.561-10.804-4.561-16.947c0-6.173,1.52-11.845,4.561-17.016
			c3.04-5.17,7.169-9.261,12.386-12.27c5.216-3.01,10.896-4.515,17.039-4.515c3.951,0,7.709,0.671,11.274,2.014
			s6.83,3.234,9.793,5.672c0.463,0.433,0.694,0.833,0.694,1.204c0,0.309-0.077,0.541-0.231,0.694l-0.046,0.046
			c-0.278,0.278-0.603,0.417-0.973,0.417c-0.34,0-0.68-0.123-1.019-0.37c-6.051-4.63-12.548-6.945-19.493-6.945
			c-5.711,0-10.967,1.374-15.766,4.121c-4.801,2.748-8.598,6.499-11.391,11.251c-2.794,4.754-4.19,9.986-4.19,15.696
			c0,5.68,1.396,10.904,4.19,15.673c2.793,4.769,6.59,8.543,11.391,11.321c4.799,2.778,10.055,4.167,15.766,4.167
			C1117.621,549.354,1121.016,548.745,1124.319,547.525z"/>
		<path fill="#FFFFFF" d="M1203.497,485.087h42.968c0.987,0,1.481,0.417,1.481,1.25v0.046c0,0.433-0.131,0.756-0.394,0.972
			c-0.263,0.216-0.625,0.324-1.088,0.324h-41.718v27.966h34.171c0.463,0,0.841,0.101,1.134,0.301c0.293,0.201,0.44,0.518,0.44,0.949
			v0.046c0,0.433-0.147,0.749-0.44,0.949c-0.293,0.201-0.671,0.301-1.134,0.301h-34.171v30.375h42.644
			c0.988,0,1.482,0.417,1.482,1.25v0.046c0,0.433-0.132,0.757-0.394,0.972c-0.263,0.216-0.625,0.324-1.089,0.324h-43.894
			c-0.834,0-1.251-0.432-1.251-1.296v-63.526C1202.246,485.504,1202.663,485.087,1203.497,485.087z"/>
		<path fill="#FFFFFF" d="M1314.157,549.632c0,1.019-0.401,1.528-1.204,1.528h-0.046c-0.433,0-0.749-0.139-0.949-0.417
			c-0.201-0.278-0.301-0.648-0.301-1.111v-63.295c0-0.308,0.1-0.586,0.301-0.833c0.2-0.247,0.501-0.386,0.902-0.417h0.231
			c0.433,0,0.896,0.294,1.39,0.88l48.756,60.563v-60.192c0-0.833,0.432-1.25,1.297-1.25h0.046c0.803,0,1.204,0.417,1.204,1.25
			v63.295c0,1.019-0.401,1.528-1.204,1.528h-0.277c-0.402,0-0.85-0.278-1.343-0.833l-48.803-60.702V549.632z"/>
		<path fill="#FFFFFF" d="M1485.706,541.668c0.309,0,0.571,0.108,0.787,0.324l0.093,0.093c0.186,0.185,0.277,0.433,0.277,0.741
			c0,0.494-0.201,0.896-0.602,1.204c-2.933,2.5-6.174,4.438-9.724,5.811c-3.55,1.374-7.301,2.061-11.251,2.061
			c-6.174,0-11.869-1.505-17.086-4.514c-5.217-3.01-9.36-7.1-12.432-12.27c-3.072-5.17-4.607-10.827-4.607-16.97
			c0-6.173,1.528-11.837,4.584-16.993c3.056-5.155,7.2-9.237,12.433-12.247c5.231-3.01,10.935-4.515,17.108-4.515
			c3.95,0,7.693,0.671,11.229,2.014c3.533,1.343,6.798,3.249,9.792,5.718c0.494,0.463,0.741,0.88,0.741,1.25
			c0,0.093-0.023,0.186-0.069,0.278c-0.046,0.093-0.069,0.155-0.069,0.186l-0.093,0.185l-0.046,0.046
			c-0.278,0.278-0.618,0.417-1.02,0.417c-0.34,0-0.679-0.123-1.019-0.37c-6.081-4.692-12.563-7.038-19.446-7.038
			c-5.711,0-10.981,1.374-15.812,4.121c-4.831,2.748-8.651,6.498-11.46,11.251c-2.809,4.754-4.213,9.986-4.213,15.697
			c0,5.711,1.412,10.935,4.236,15.673c2.824,4.739,6.645,8.489,11.46,11.251c4.815,2.763,10.078,4.144,15.789,4.144
			c6.883,0,13.35-2.376,19.4-7.13C1485.026,541.807,1485.366,541.668,1485.706,541.668z"/>
		<path fill="#FFFFFF" d="M1553.723,485.087h42.968c0.987,0,1.481,0.417,1.481,1.25v0.046c0,0.433-0.131,0.756-0.394,0.972
			c-0.263,0.216-0.625,0.324-1.088,0.324h-41.718v27.966h34.171c0.463,0,0.841,0.101,1.134,0.301c0.293,0.201,0.44,0.518,0.44,0.949
			v0.046c0,0.433-0.147,0.749-0.44,0.949c-0.293,0.201-0.671,0.301-1.134,0.301h-34.171v30.375h42.644
			c0.988,0,1.482,0.417,1.482,1.25v0.046c0,0.433-0.132,0.757-0.394,0.972c-0.263,0.216-0.625,0.324-1.089,0.324h-43.894
			c-0.834,0-1.251-0.432-1.251-1.296v-63.526C1552.472,485.504,1552.889,485.087,1553.723,485.087z"/>
	</g>
</g>
</svg>
