<?xml version="1.0" encoding="utf-8"?>
<!-- Generator: Adobe Illustrator 16.0.0, SVG Export Plug-In . SVG Version: 6.00 Build 0)  -->
<!DOCTYPE svg PUBLIC "-//W3C//DTD SVG 1.1//EN" "http://www.w3.org/Graphics/SVG/1.1/DTD/svg11.dtd">
<svg version="1.1" id="Calque_1" xmlns="http://www.w3.org/2000/svg" xmlns:xlink="http://www.w3.org/1999/xlink" x="0px" y="0px"
	 width="867px" height="141px" viewBox="0 0 867 141" enable-background="new 0 0 867 141" xml:space="preserve">
<g>
	<path fill="#000000" d="M243.3,120.8c-1.16,0-2.103-0.945-2.103-2.099V22.947c0-1.159,0.942-2.099,2.101-2.099
		c1.157,0,2.101,0.94,2.101,2.099v95.754C245.399,119.855,244.455,120.8,243.3,120.8z"/>
	<path fill="#000000" d="M48.578,121.527c-4.426,0-8.665-0.761-12.598-2.255c-3.939-1.503-7.425-3.593-10.356-6.21
		c-2.927-2.61-5.256-5.708-6.928-9.204c-1.188-2.499-1.969-5.132-2.306-7.835c-0.061-0.524,0.1-1.039,0.458-1.443
		c0.371-0.421,0.901-0.661,1.455-0.661h0.382c0.969,0,1.759,0.722,1.887,1.72c0.298,2.427,0.995,4.772,2.063,6.974
		c1.477,3.04,3.524,5.745,6.085,8.035c2.551,2.277,5.566,4.095,8.953,5.405c3.397,1.313,7.063,1.98,10.904,1.98
		c3.833,0,7.497-0.639,10.882-1.902c3.392-1.26,6.411-3.06,8.967-5.34c2.562-2.283,4.608-5.068,6.091-8.272
		c1.483-3.217,2.241-6.751,2.241-10.505c0-3.211-0.769-6.185-2.285-8.841c-1.494-2.607-3.546-4.938-6.113-6.923
		c-2.528-1.956-5.516-3.632-8.875-4.982c-3.318-1.337-6.921-2.364-10.7-3.063c-3.729-0.665-7.253-1.67-10.489-2.998
		c-3.208-1.314-6.085-2.977-8.553-4.95c-2.434-1.942-4.371-4.205-5.759-6.732c-1.372-2.494-2.064-5.276-2.064-8.276
		c0-3.617,0.709-6.992,2.102-10.034c1.4-3.064,3.325-5.739,5.711-7.961c2.384-2.224,5.234-3.989,8.463-5.248
		c3.231-1.252,6.723-1.892,10.38-1.892c5.355,0,10.39,1.118,14.954,3.319c3.358,1.619,6.307,3.652,8.774,6.043
		c0.399,0.388,0.593,0.937,0.525,1.509c-0.071,0.608-0.415,1.14-0.94,1.452c-0.293,0.178-0.636,0.271-0.984,0.271
		c-0.493,0-0.953-0.186-1.283-0.528c-2.296-2.316-5.019-4.248-8.094-5.746c-3.856-1.873-8.217-2.821-12.952-2.821
		c-3.077,0-5.998,0.518-8.687,1.534c-2.695,1.026-5.106,2.509-7.171,4.399c-2.08,1.911-3.718,4.234-4.869,6.907
		c-1.149,2.668-1.731,5.628-1.731,8.794c0,2.653,0.691,5.098,2.063,7.272c1.323,2.113,3.105,4.013,5.279,5.648
		c2.152,1.619,4.674,2.974,7.497,4.033c2.788,1.046,5.725,1.829,8.73,2.327c4.476,0.665,8.68,1.818,12.509,3.428
		c3.796,1.605,7.137,3.629,9.92,6.018c2.765,2.38,4.956,5.114,6.511,8.13c1.544,2.983,2.324,6.319,2.324,9.909
		c0,4.188-0.84,8.125-2.506,11.708c-1.67,3.588-4,6.729-6.921,9.34c-2.938,2.62-6.422,4.71-10.357,6.207
		C57.23,120.766,52.993,121.527,48.578,121.527z"/>
	<path fill="#000000" d="M540.558,120.8c-0.963,0-1.749-0.783-1.749-1.747V28.441c0-2.257-1.837-4.097-4.094-4.097h-24.436
		c-0.969,0-1.75-0.783-1.75-1.748s0.781-1.748,1.75-1.748h61.268c0.967,0,1.748,0.783,1.748,1.748s-0.781,1.748-1.748,1.748h-24.438
		c-2.257,0-4.101,1.84-4.101,4.097v90.613c0,0.964-0.779,1.747-1.743,1.747H540.558z"/>
	<path fill="#000000" d="M740.699,118.29l-25.606-93.571c-0.625-2.28-2.71-3.871-5.073-3.871c-2.361,0-4.451,1.59-5.073,3.871
		l-19.221,70.314c-0.161,0.604-0.041,1.235,0.339,1.729c0.379,0.499,0.954,0.78,1.579,0.78c0.891,0,1.68-0.597,1.918-1.455
		l18.284-66.625c0.271-0.997,1.145-1.663,2.174-1.663s1.902,0.666,2.176,1.663l13.604,49.842l0.992,3.497l10.074,36.542
		c0.237,0.858,1.024,1.457,1.915,1.457c0.626,0,1.201-0.284,1.58-0.783C740.739,119.525,740.861,118.892,740.699,118.29z"/>
	<path fill="#000000" d="M689.3,115.249c0,3.656-2.96,6.616-6.612,6.616c-3.658,0-6.618-2.96-6.618-6.616
		c0-3.652,2.96-6.616,6.618-6.616C686.34,108.633,689.3,111.596,689.3,115.249z"/>
	<g>
		<path fill="#000000" d="M294.338,22.596c0,0.965,0.783,1.748,1.749,1.748h49.329c0.965,0,1.75-0.783,1.75-1.748
			s-0.785-1.748-1.75-1.748h-49.329C295.121,20.848,294.338,21.63,294.338,22.596L294.338,22.596z"/>
		<path fill="#000000" d="M347.36,69.119c0-0.965-0.786-1.748-1.75-1.748h-49.524c-0.965,0-1.749,0.78-1.749,1.748l0,0
			c0,0.962,0.783,1.745,1.749,1.745h49.524C346.574,70.864,347.36,70.082,347.36,69.119z"/>
		<path fill="#000000" d="M345.416,117.301h-49.329c-0.965,0-1.749,0.783-1.749,1.75l0,0c0,0.967,0.783,1.75,1.749,1.75h49.329
			c0.965,0,1.75-0.783,1.75-1.747C347.166,118.087,346.381,117.301,345.416,117.301z"/>
	</g>
	<path fill="#000000" d="M189.927,93.224c-1.059,0-1.951,0.815-2.071,1.897c-0.299,2.611-0.995,5.111-2.066,7.43
		c-1.479,3.202-3.527,5.985-6.095,8.275c-2.558,2.283-5.574,4.08-8.967,5.343c-3.383,1.257-7.046,1.9-10.886,1.9
		c-3.838,0-7.503-0.643-10.886-1.9c-3.394-1.263-6.409-3.06-8.965-5.343c-2.562-2.286-4.613-5.07-6.095-8.275
		c-1.485-3.212-2.235-6.747-2.235-10.502l-0.001-18.834l0.001-23.533c0-3.757,0.75-7.291,2.235-10.505
		c1.481-3.204,3.532-5.989,6.095-8.273c2.556-2.283,5.572-4.08,8.965-5.343c3.383-1.257,7.048-1.899,10.886-1.899
		c3.839,0,7.503,0.642,10.886,1.899c3.393,1.263,6.409,3.058,8.967,5.343c2.567,2.291,4.616,5.073,6.095,8.273
		c1.071,2.322,1.767,4.819,2.066,7.429c0.12,1.083,1.012,1.898,2.071,1.898c0.605,0,1.187-0.26,1.592-0.716
		c0.396-0.446,0.576-1.007,0.509-1.583c-0.337-2.893-1.114-5.661-2.312-8.231c-1.667-3.591-3.997-6.734-6.919-9.341
		c-2.935-2.62-6.42-4.708-10.358-6.206c-3.938-1.503-8.176-2.263-12.596-2.263s-8.658,0.759-12.596,2.263
		c-3.933,1.494-7.417,3.583-10.357,6.206c-2.919,2.607-5.249,5.75-6.919,9.341c-1.648,3.54-2.491,7.445-2.509,11.708v22.864v1.501
		v18.001c0.019,4.259,0.861,8.166,2.509,11.708c1.67,3.585,4,6.729,6.919,9.337c2.939,2.623,6.424,4.713,10.357,6.207
		c3.938,1.506,8.176,2.261,12.596,2.261s8.658-0.755,12.596-2.261c3.938-1.494,7.423-3.587,10.358-6.207
		c2.922-2.607,5.252-5.751,6.919-9.337c1.198-2.572,1.975-5.34,2.312-8.233c0.067-0.577-0.112-1.14-0.509-1.586
		C191.113,93.485,190.532,93.224,189.927,93.224z"/>
	<path fill="#000000" d="M451.525,120.8c-0.797,0-1.516-0.443-1.874-1.154l-45.908-90.711l-2.221,0.53v89.236
		c0,1.154-0.943,2.099-2.099,2.099c-1.16,0-2.104-0.945-2.104-2.099V22.947c0-1.159,0.944-2.099,2.104-2.099h3.872
		c0.8,0,1.519,0.443,1.878,1.159l45.58,90.703l2.224-0.527V22.947c0-1.159,0.94-2.099,2.101-2.099c1.159,0,2.1,0.94,2.1,2.099
		v95.754c0,1.154-0.94,2.099-2.1,2.099H451.525z"/>
	<path fill="#000000" d="M625.709,120.8c-1.16,0-2.103-0.945-2.103-2.099V22.947c0-1.159,0.942-2.099,2.101-2.099
		c1.157,0,2.101,0.94,2.101,2.099v95.754C627.808,119.855,626.864,120.8,625.709,120.8z"/>
	<g>
		<path fill="#000000" d="M787.221,25.428c0,0.965,0.783,1.748,1.748,1.748h49.328c0.969,0,1.751-0.783,1.751-1.748
			s-0.782-1.748-1.751-1.748h-49.328C788.004,23.68,787.221,24.462,787.221,25.428L787.221,25.428z"/>
		<path fill="#000000" d="M840.244,71.952c0-0.965-0.784-1.749-1.751-1.749h-49.524c-0.965,0-1.748,0.78-1.748,1.749l0,0
			c0,0.962,0.783,1.745,1.748,1.745h49.524C839.46,73.697,840.244,72.914,840.244,71.952z"/>
		<path fill="#000000" d="M838.297,120.133h-49.328c-0.965,0-1.748,0.783-1.748,1.75l0,0c0,0.964,0.783,1.747,1.748,1.747h49.328
			c0.969,0,1.751-0.783,1.751-1.744C840.048,120.922,839.266,120.133,838.297,120.133z"/>
	</g>
</g>
</svg>
