<?xml version="1.0" encoding="utf-8"?>
<!-- Generator: Adobe Illustrator 25.0.1, SVG Export Plug-In . SVG Version: 6.00 Build 0)  -->
<svg version="1.1" id="Layer_1" xmlns="http://www.w3.org/2000/svg" xmlns:xlink="http://www.w3.org/1999/xlink" x="0px" y="0px"
	 viewBox="0 0 1752.5 514.4" style="enable-background:new 0 0 1752.5 514.4;" xml:space="preserve">
<style type="text/css">
	.st0{fill:#FFFFFF;}
</style>
<g>
	<path class="st0" d="M489.7,364.2c-2.4,0-4.4-2-4.4-4.4V159.4c0-2.4,2-4.4,4.4-4.4s4.4,2,4.4,4.4v200.3
		C494.1,362.2,492.1,364.2,489.7,364.2z"/>
	<path class="st0" d="M82.3,365.7c-9.3,0-18.1-1.6-26.4-4.7c-8.2-3.1-15.5-7.5-21.7-13c-6.1-5.5-11-11.9-14.5-19.3
		c-2.5-5.2-4.1-10.7-4.8-16.4c-0.1-1.1,0.2-2.2,1-3c0.8-0.9,1.9-1.4,3-1.4h0.8c2,0,3.7,1.5,3.9,3.6c0.6,5.1,2.1,10,4.3,14.6
		c3.1,6.4,7.4,12,12.7,16.8c5.3,4.8,11.6,8.6,18.7,11.3c7.1,2.7,14.8,4.1,22.8,4.1c8,0,15.7-1.3,22.8-4c7.1-2.6,13.4-6.4,18.8-11.2
		c5.4-4.8,9.6-10.6,12.7-17.3c3.1-6.7,4.7-14.1,4.7-22c0-6.7-1.6-12.9-4.8-18.5c-3.1-5.5-7.4-10.3-12.8-14.5
		c-5.3-4.1-11.5-7.6-18.6-10.4c-6.9-2.8-14.5-4.9-22.4-6.4c-7.8-1.4-15.2-3.5-21.9-6.3c-6.7-2.8-12.7-6.2-17.9-10.4
		c-5.1-4.1-9.1-8.8-12.1-14.1c-2.9-5.2-4.3-11-4.3-17.3c0-7.6,1.5-14.6,4.4-21c2.9-6.4,7-12,11.9-16.7c5-4.7,11-8.3,17.7-11
		c6.8-2.6,14.1-4,21.7-4c11.2,0,21.7,2.3,31.3,6.9c7,3.4,13.2,7.6,18.4,12.6c0.8,0.8,1.2,2,1.1,3.2c-0.1,1.3-0.9,2.4-2,3
		c-0.6,0.4-1.3,0.6-2.1,0.6c-1,0-2-0.4-2.7-1.1c-4.8-4.8-10.5-8.9-16.9-12c-8.1-3.9-17.2-5.9-27.1-5.9c-6.4,0-12.5,1.1-18.2,3.2
		c-5.6,2.1-10.7,5.3-15,9.2c-4.4,4-7.8,8.9-10.2,14.5c-2.4,5.6-3.6,11.8-3.6,18.4c0,5.6,1.4,10.7,4.3,15.2c2.8,4.4,6.5,8.4,11,11.8
		c4.5,3.4,9.8,6.2,15.7,8.4c5.8,2.2,12,3.8,18.3,4.9c9.4,1.4,18.2,3.8,26.2,7.2c7.9,3.4,14.9,7.6,20.8,12.6c5.8,5,10.4,10.7,13.6,17
		c3.2,6.2,4.9,13.2,4.9,20.7c0,8.8-1.8,17-5.2,24.5c-3.5,7.5-8.4,14.1-14.5,19.5c-6.1,5.5-13.4,9.9-21.7,13
		C100.4,364.1,91.5,365.7,82.3,365.7z"/>
	<path class="st0" d="M1111.6,364.2c-2,0-3.7-1.6-3.7-3.7V170.9c0-4.7-3.8-8.6-8.6-8.6h-51.1c-2,0-3.7-1.6-3.7-3.7s1.6-3.7,3.7-3.7
		h128.2c2,0,3.7,1.6,3.7,3.7s-1.6,3.7-3.7,3.7h-51.1c-4.7,0-8.6,3.8-8.6,8.6v189.6c0,2-1.6,3.7-3.6,3.7H1111.6z"/>
	<path class="st0" d="M1530.4,358.9l-53.6-195.8c-1.3-4.8-5.7-8.1-10.6-8.1s-9.3,3.3-10.6,8.1l-40.2,147.1c-0.3,1.3-0.1,2.6,0.7,3.6
		c0.8,1,2,1.6,3.3,1.6c1.9,0,3.5-1.3,4-3l38.3-139.4c0.6-2.1,2.4-3.5,4.6-3.5s4,1.4,4.6,3.5l28.5,104.3l2.1,7.3l21.1,76.5
		c0.5,1.8,2.1,3,4,3c1.3,0,2.5-0.6,3.3-1.6C1530.5,361.5,1530.7,360.2,1530.4,358.9z"/>
	<path class="st0" d="M1420.9,350.6c0,7.6-6.2,13.8-13.8,13.8c-7.7,0-13.8-6.2-13.8-13.8s6.2-13.8,13.8-13.8
		C1414.7,336.7,1420.9,342.9,1420.9,350.6z"/>
	<g>
		<path class="st0" d="M596.5,158.7c0,2,1.6,3.7,3.7,3.7h103.2c2,0,3.7-1.6,3.7-3.7s-1.6-3.7-3.7-3.7H600.1
			C598.1,155,596.5,156.7,596.5,158.7L596.5,158.7z"/>
		<path class="st0" d="M707.4,256c0-2-1.6-3.7-3.7-3.7H600.1c-2,0-3.7,1.6-3.7,3.7l0,0c0,2,1.6,3.7,3.7,3.7h103.6
			C705.8,259.7,707.4,258,707.4,256z"/>
		<path class="st0" d="M703.3,356.8H600.1c-2,0-3.7,1.6-3.7,3.7l0,0c0,2,1.6,3.7,3.7,3.7h103.2c2,0,3.7-1.6,3.7-3.7
			C707,358.5,705.4,356.8,703.3,356.8z"/>
	</g>
	<path class="st0" d="M378,306.4c-2.2,0-4.1,1.7-4.3,4c-0.6,5.5-2.1,10.7-4.3,15.5c-3.1,6.7-7.4,12.5-12.8,17.3
		c-5.4,4.8-11.7,8.5-18.8,11.2c-7.1,2.6-14.7,4-22.8,4c-8,0-15.7-1.3-22.8-4c-7.1-2.6-13.4-6.4-18.8-11.2
		c-5.4-4.8-9.7-10.6-12.8-17.3c-3.1-6.7-4.7-14.1-4.7-22l0-39.4l0-49.2c0-7.9,1.6-15.3,4.7-22c3.1-6.7,7.4-12.5,12.8-17.3
		c5.3-4.8,11.7-8.5,18.8-11.2c7.1-2.6,14.7-4,22.8-4c8,0,15.7,1.3,22.8,4c7.1,2.6,13.4,6.4,18.8,11.2c5.4,4.8,9.7,10.6,12.8,17.3
		c2.2,4.9,3.7,10.1,4.3,15.5c0.3,2.3,2.1,4,4.3,4c1.3,0,2.5-0.5,3.3-1.5c0.8-0.9,1.2-2.1,1.1-3.3c-0.7-6.1-2.3-11.8-4.8-17.2
		c-3.5-7.5-8.4-14.1-14.5-19.5c-6.1-5.5-13.4-9.9-21.7-13c-8.2-3.1-17.1-4.7-26.4-4.7s-18.1,1.6-26.4,4.7c-8.2,3.1-15.5,7.5-21.7,13
		c-6.1,5.5-11,12-14.5,19.5c-3.4,7.4-5.2,15.6-5.3,24.5v47.8v3.1v37.7c0,8.9,1.8,17.1,5.3,24.5c3.5,7.5,8.4,14.1,14.5,19.5
		c6.1,5.5,13.4,9.9,21.7,13c8.2,3.1,17.1,4.7,26.4,4.7c9.2,0,18.1-1.6,26.4-4.7c8.2-3.1,15.5-7.5,21.7-13c6.1-5.5,11-12,14.5-19.5
		c2.5-5.4,4.1-11.2,4.8-17.2c0.1-1.2-0.2-2.4-1.1-3.3C380.5,306.9,379.3,306.4,378,306.4z"/>
	<path class="st0" d="M925.3,364.2c-1.7,0-3.2-0.9-3.9-2.4l-96-189.8l-4.6,1.1v186.7c0,2.4-2,4.4-4.4,4.4c-2.4,0-4.4-2-4.4-4.4
		V159.4c0-2.4,2-4.4,4.4-4.4h8.1c1.7,0,3.2,0.9,3.9,2.4l95.4,189.8l4.7-1.1V159.4c0-2.4,2-4.4,4.4-4.4c2.4,0,4.4,2,4.4,4.4v200.3
		c0,2.4-2,4.4-4.4,4.4H925.3z"/>
	<path class="st0" d="M1289.8,364.2c-2.4,0-4.4-2-4.4-4.4V159.4c0-2.4,2-4.4,4.4-4.4s4.4,2,4.4,4.4v200.3
		C1294.2,362.2,1292.2,364.2,1289.8,364.2z"/>
	<g>
		<path class="st0" d="M1627.7,158.7c0,2,1.6,3.7,3.7,3.7h103.2c2,0,3.7-1.6,3.7-3.7s-1.6-3.7-3.7-3.7h-103.2
			C1629.3,155,1627.7,156.7,1627.7,158.7L1627.7,158.7z"/>
		<path class="st0" d="M1738.6,256c0-2-1.6-3.7-3.7-3.7h-103.6c-2,0-3.7,1.6-3.7,3.7l0,0c0,2,1.6,3.7,3.7,3.7H1735
			C1737,259.7,1738.6,258,1738.6,256z"/>
		<path class="st0" d="M1734.6,356.8h-103.2c-2,0-3.7,1.6-3.7,3.7l0,0c0,2,1.6,3.7,3.7,3.7h103.2c2,0,3.7-1.6,3.7-3.7
			C1738.2,358.5,1736.6,356.8,1734.6,356.8z"/>
	</g>
	<g>
		<path class="st0" d="M409.7,506.2h-10.1c-3.5,0-6.2-1-8.2-3c-2-2-3-4.8-3-8.3v-28.7c0-3.5,1-6.3,3-8.3c2-2,4.7-3,8.2-3h10.1
			c3.5,0,6.2,1,8.2,3c2,2,3,4.8,3,8.3v3.9c0,0.6-0.3,1-0.9,1h-2.2c-0.6,0-0.9-0.3-0.9-1v-3.8c0-2.6-0.7-4.5-2-5.9
			c-1.3-1.4-3.2-2-5.6-2H400c-2.5,0-4.3,0.7-5.6,2.1c-1.3,1.4-1.9,3.3-1.9,5.8v28.4c0,2.5,0.6,4.5,1.9,5.8c1.3,1.4,3.1,2.1,5.6,2.1
			h9.4c2.5,0,4.3-0.7,5.6-2c1.3-1.4,2-3.3,2-5.9v-3.8c0-0.6,0.3-1,0.9-1h2.2c0.6,0,0.9,0.3,0.9,1v3.9c0,3.5-1,6.3-3,8.3
			C415.9,505.1,413.2,506.2,409.7,506.2z"/>
		<path class="st0" d="M470.1,506.2h-2.3c-0.6,0-0.9-0.3-0.9-1v-18.5l-15.5-31c-0.3-0.6-0.1-1,0.6-1h2.9c0.5,0,0.9,0.3,1.1,1
			l12.8,26.2h0.4l12.7-26.2c0.3-0.6,0.6-1,1.1-1h3c0.6,0,0.8,0.3,0.6,1l-15.6,31v18.5C470.9,505.8,470.6,506.2,470.1,506.2z"/>
		<path class="st0" d="M518.9,505.2v-49.5c0-0.6,0.3-1,0.8-1h18.6c3.5,0,6.2,1,8.2,3c2,2,3,4.7,3,8.2v4.9c0,4.9-2.3,8-6.9,9.4
			c2,0.1,3.7,1,5.2,2.7c1.5,1.7,2.2,3.9,2.2,6.6v5.6c0,3.5-1,6.2-3,8.2c-2,2-4.8,3-8.2,3h-19.2C519.2,506.2,518.9,505.8,518.9,505.2
			z M523.7,478.3h14.1c2.5,0,4.4-0.7,5.8-2c1.4-1.3,2-3.2,2-5.7v-4.7c0-5.1-2.5-7.7-7.6-7.7h-14.3c-0.5,0-0.8,0.2-0.8,0.7v18.6
			C522.9,478.1,523.2,478.3,523.7,478.3z M523.7,502.6h14.9c5.1,0,7.6-2.6,7.6-7.7v-5.5c0-5.1-2.8-7.6-8.3-7.6h-14.2
			c-0.5,0-0.8,0.2-0.8,0.6v19.4C522.9,502.4,523.2,502.6,523.7,502.6z"/>
		<path class="st0" d="M611.6,506.2h-24.7c-0.5,0-0.8-0.3-0.8-1v-49.5c0-0.6,0.3-1,0.8-1h24.7c0.6,0,1,0.3,1,0.9v1.8
			c0,0.6-0.3,0.9-1,0.9h-20.7c-0.5,0-0.8,0.2-0.8,0.7v18.4c0,0.5,0.3,0.7,0.8,0.7h18.5c0.6,0,0.9,0.3,0.9,0.9v1.8
			c0,0.6-0.3,0.9-0.9,0.9h-18.5c-0.5,0-0.8,0.2-0.8,0.7v19.4c0,0.5,0.3,0.7,0.8,0.7h20.7c0.6,0,1,0.3,1,0.9v1.8
			C612.5,505.9,612.2,506.2,611.6,506.2z"/>
		<path class="st0" d="M651.1,506.2h-2.3c-0.5,0-0.8-0.3-0.8-1v-49.5c0-0.6,0.3-1,0.8-1H667c3.5,0,6.2,1,8.2,3c2,2,3,4.8,3,8.3v7.6
			c0,3-0.8,5.4-2.3,7.4s-3.6,3.1-6.2,3.7v0.3l9.5,20.2c0.3,0.6,0.1,1-0.6,1h-2.5c-0.7,0-1.2-0.3-1.4-1l-9.4-20.2h-12.6
			c-0.5,0-0.8,0.2-0.8,0.7v19.4C652,505.8,651.7,506.2,651.1,506.2z M652.8,481.6h13.8c2.5,0,4.3-0.7,5.7-2c1.3-1.4,2-3.3,2-5.8
			v-7.5c0-2.5-0.7-4.5-2-5.8c-1.3-1.4-3.2-2.1-5.7-2.1h-13.8c-0.5,0-0.8,0.2-0.8,0.7v21.8C652,481.4,652.2,481.6,652.8,481.6z"/>
		<path class="st0" d="M718.5,455.7v49.5c0,0.6-0.3,1-0.9,1h-2.3c-0.5,0-0.8-0.3-0.8-1v-49.5c0-0.6,0.3-1,0.8-1h2.3
			C718.2,454.7,718.5,455,718.5,455.7z"/>
		<path class="st0" d="M759.1,506.2h-2.3c-0.5,0-0.8-0.3-0.8-1v-49.5c0-0.6,0.3-1,0.8-1h2.2c0.5,0,0.8,0.2,1,0.5l24.6,42.2h0.3
			v-41.8c0-0.6,0.3-1,0.9-1h2.2c0.6,0,0.9,0.3,0.9,1v49.5c0,0.6-0.3,1-0.9,1H786c-0.5,0-0.9-0.3-1.3-0.9l-24.5-41.9H760v41.8
			C760,505.8,759.7,506.2,759.1,506.2z"/>
		<path class="st0" d="M836.9,506.2h-2.3c-0.6,0-0.9-0.3-0.9-1V459c0-0.5-0.3-0.7-0.8-0.7h-11.6c-0.6,0-1-0.3-1-0.9v-1.8
			c0-0.6,0.3-0.9,1-0.9h28.8c0.6,0,1,0.3,1,0.9v1.8c0,0.6-0.3,0.9-1,0.9h-11.6c-0.5,0-0.8,0.2-0.8,0.7v46.2
			C837.7,505.8,837.4,506.2,836.9,506.2z"/>
		<path class="st0" d="M908.3,506.2h-24.7c-0.5,0-0.8-0.3-0.8-1v-49.5c0-0.6,0.3-1,0.8-1h24.7c0.6,0,1,0.3,1,0.9v1.8
			c0,0.6-0.3,0.9-1,0.9h-20.7c-0.5,0-0.8,0.2-0.8,0.7v18.4c0,0.5,0.3,0.7,0.8,0.7H906c0.6,0,0.9,0.3,0.9,0.9v1.8
			c0,0.6-0.3,0.9-0.9,0.9h-18.5c-0.5,0-0.8,0.2-0.8,0.7v19.4c0,0.5,0.3,0.7,0.8,0.7h20.7c0.6,0,1,0.3,1,0.9v1.8
			C909.2,505.9,908.9,506.2,908.3,506.2z"/>
		<path class="st0" d="M970.9,506.2h-25.4c-0.5,0-0.8-0.3-0.8-1v-49.5c0-0.6,0.3-1,0.8-1h2.3c0.6,0,0.9,0.3,0.9,1v46
			c0,0.5,0.3,0.7,0.8,0.7h21.4c0.6,0,1,0.3,1,0.9v2C971.9,505.9,971.6,506.2,970.9,506.2z"/>
		<path class="st0" d="M1030.4,506.2H1005c-0.5,0-0.8-0.3-0.8-1v-49.5c0-0.6,0.3-1,0.8-1h2.3c0.6,0,0.9,0.3,0.9,1v46
			c0,0.5,0.3,0.7,0.8,0.7h21.4c0.6,0,1,0.3,1,0.9v2C1031.4,505.9,1031.1,506.2,1030.4,506.2z"/>
		<path class="st0" d="M1068.1,455.7v49.5c0,0.6-0.3,1-0.9,1h-2.3c-0.5,0-0.8-0.3-0.8-1v-49.5c0-0.6,0.3-1,0.8-1h2.3
			C1067.8,454.7,1068.1,455,1068.1,455.7z"/>
		<path class="st0" d="M1124.7,506.2h-8.7c-3.5,0-6.2-1-8.2-3c-2-2-3-4.8-3-8.3v-28.7c0-3.5,1-6.3,3-8.3c2-2,4.7-3,8.2-3h8.7
			c3.5,0,6.2,1,8.2,3c2,2,3,4.8,3,8.3v3.6c0,0.6-0.3,1-0.9,1h-2.3c-0.6,0-0.9-0.3-0.9-1v-3.4c0-2.6-0.6-4.5-1.9-5.9
			c-1.3-1.4-3.1-2-5.6-2h-8.1c-2.5,0-4.3,0.7-5.6,2.1c-1.3,1.4-1.9,3.3-1.9,5.8v28.4c0,2.5,0.6,4.5,1.9,5.8s3.1,2.1,5.6,2.1h8.1
			c2.5,0,4.3-0.7,5.6-2c1.3-1.4,1.9-3.3,1.9-5.9v-10.6c0-0.5-0.2-0.7-0.7-0.7h-9.2c-0.6,0-0.9-0.3-0.9-0.9v-1.8
			c0-0.6,0.3-0.9,0.9-0.9h12.5c1,0,1.5,0.5,1.5,1.6v13.4c0,3.5-1,6.3-3,8.3C1130.9,505.1,1128.1,506.2,1124.7,506.2z"/>
		<path class="st0" d="M1197.6,506.2h-24.7c-0.5,0-0.8-0.3-0.8-1v-49.5c0-0.6,0.3-1,0.8-1h24.7c0.6,0,1,0.3,1,0.9v1.8
			c0,0.6-0.3,0.9-1,0.9h-20.7c-0.5,0-0.8,0.2-0.8,0.7v18.4c0,0.5,0.3,0.7,0.8,0.7h18.5c0.6,0,0.9,0.3,0.9,0.9v1.8
			c0,0.6-0.3,0.9-0.9,0.9h-18.5c-0.5,0-0.8,0.2-0.8,0.7v19.4c0,0.5,0.3,0.7,0.8,0.7h20.7c0.6,0,1,0.3,1,0.9v1.8
			C1198.6,505.9,1198.3,506.2,1197.6,506.2z"/>
		<path class="st0" d="M1237.1,506.2h-2.3c-0.5,0-0.8-0.3-0.8-1v-49.5c0-0.6,0.3-1,0.8-1h2.2c0.5,0,0.8,0.2,1,0.5l24.6,42.2h0.3
			v-41.8c0-0.6,0.3-1,0.9-1h2.2c0.6,0,0.9,0.3,0.9,1v49.5c0,0.6-0.3,1-0.9,1h-1.8c-0.5,0-0.9-0.3-1.3-0.9l-24.5-41.9h-0.3v41.8
			C1238,505.8,1237.7,506.2,1237.1,506.2z"/>
		<path class="st0" d="M1324.3,506.2h-10.1c-3.5,0-6.2-1-8.2-3c-2-2-3-4.8-3-8.3v-28.7c0-3.5,1-6.3,3-8.3c2-2,4.7-3,8.2-3h10.1
			c3.5,0,6.2,1,8.2,3c2,2,3,4.8,3,8.3v3.9c0,0.6-0.3,1-0.9,1h-2.2c-0.6,0-0.9-0.3-0.9-1v-3.8c0-2.6-0.7-4.5-2-5.9
			c-1.3-1.4-3.2-2-5.6-2h-9.4c-2.5,0-4.3,0.7-5.6,2.1c-1.3,1.4-1.9,3.3-1.9,5.8v28.4c0,2.5,0.6,4.5,1.9,5.8s3.1,2.1,5.6,2.1h9.4
			c2.5,0,4.3-0.7,5.6-2c1.3-1.4,2-3.3,2-5.9v-3.8c0-0.6,0.3-1,0.9-1h2.2c0.6,0,0.9,0.3,0.9,1v3.9c0,3.5-1,6.3-3,8.3
			C1330.5,505.1,1327.7,506.2,1324.3,506.2z"/>
		<path class="st0" d="M1396.1,506.2h-24.7c-0.5,0-0.8-0.3-0.8-1v-49.5c0-0.6,0.3-1,0.8-1h24.7c0.6,0,1,0.3,1,0.9v1.8
			c0,0.6-0.3,0.9-1,0.9h-20.7c-0.5,0-0.8,0.2-0.8,0.7v18.4c0,0.5,0.3,0.7,0.8,0.7h18.5c0.6,0,0.9,0.3,0.9,0.9v1.8
			c0,0.6-0.3,0.9-0.9,0.9h-18.5c-0.5,0-0.8,0.2-0.8,0.7v19.4c0,0.5,0.3,0.7,0.8,0.7h20.7c0.6,0,1,0.3,1,0.9v1.8
			C1397.1,505.9,1396.7,506.2,1396.1,506.2z"/>
	</g>
</g>
</svg>
